<?xml version="1.0" encoding="UTF-8"?>
<svg id="Livello_1" xmlns="http://www.w3.org/2000/svg" version="1.1" viewBox="0 0 515.9 1334.98">
  <!-- Generator: Adobe Illustrator 30.0.0, SVG Export Plug-In . SVG Version: 2.1.1 Build 123)  -->
  <path d="M112.49,432.56c0,10.86,0,21.73,0,32.59,0,88.94.04,177.88-.01,266.82,0,8.73.29,17.56-.91,26.15-3.2,22.77-21.25,38.93-43.61,39.95-20.72.95-39.86-13.36-45.13-34.89-2.05-8.36-2.52-17.27-2.53-25.93-.17-109.59-.28-219.17-.07-328.76.14-74.47,36.51-110.43,111.51-110.57,87.35-.16,174.7-.19,262.05-.03,63.12.12,101.9,39.27,101.95,102.73.08,115.94-.05,231.88.06,347.82.02,21.05-8.08,36.81-27.78,45.58-17.98,8.01-36.22,5.51-47.94-8.8-8.66-10.58-14.61-26.67-14.79-40.39-1.26-96.07-.61-192.16-.88-288.25-.02-8.5-2.21-16.99-3.39-25.49-2.67-.09-5.34-.18-8-.27-1.7,7.39-4.87,14.78-4.88,22.17-.15,249.34,0,498.68.07,748.02,0,10.31.3,20.72-.9,30.92-3.23,27.49-24.79,48.22-51.82,50.76-26.69,2.51-51.81-14.32-59.33-41.34-2.92-10.5-3.59-21.9-3.62-32.89-.25-113.56-.16-227.11-.16-340.67,0-5.56,1.76-12.02-.47-16.46-3.35-6.69-9.51-11.97-14.48-17.86-4.64,6.24-10.4,11.97-13.52,18.9-2.08,4.62-.42,10.94-.42,16.5.02,117.53.14,235.06-.02,352.58-.04,28.61-13.95,49.34-37.48,57.71-22.68,8.07-48.55,3.41-62-16.72-9.02-13.5-15.04-31.83-15.12-48.03-1.02-189.78-.66-379.58-.65-569.37,0-63.53.19-127.06-.16-190.58-.04-7.89-2.92-15.77-4.48-23.66-3.7.58-7.39,1.16-11.09,1.75Z"/>
  <path d="M259.39,270.55c-61.29.49-111.04-48.31-111.08-108.95-.04-59.17,49.99-109.55,108.78-109.57,61.78-.02,110.18,48.06,110.32,109.6.14,60.65-47.25,108.44-108.02,108.92Z"/>
</svg>